<svg width="56" height="56" viewBox="0 0 56 56" fill="none" xmlns="http://www.w3.org/2000/svg">
<rect width="56" height="56" rx="28" fill="#E3F1FD"/>
<path d="M21.2917 18.0835C20.8085 18.0835 20.4167 18.4753 20.4167 18.9585V37.9168H22.7501V34.7085C22.7501 33.903 23.403 33.2502 24.2084 33.2502H31.7917C32.5972 33.2502 33.2501 33.903 33.2501 34.7085V37.9168H35.5834V27.7085C35.5834 27.2253 35.1916 26.8335 34.7084 26.8335H32.3751C31.8918 26.8335 31.5001 26.4417 31.5001 25.9585V18.9585C31.5001 18.4753 31.1083 18.0835 30.6251 18.0835H21.2917ZM24.5001 35.0002V37.9168H27.1251V35.0002H24.5001ZM28.8751 35.0002V37.9168H31.5001V35.0002H28.8751ZM36.4584 39.6668H19.5417C19.0585 39.6668 18.6667 39.2751 18.6667 38.7918V18.9585C18.6667 17.5087 19.842 16.3335 21.2917 16.3335H30.6251C32.0748 16.3335 33.2501 17.5087 33.2501 18.9585V25.0835H34.7084C36.1581 25.0835 37.3334 26.2588 37.3334 27.7085V38.7918C37.3334 39.2751 36.9416 39.6668 36.4584 39.6668ZM22.7501 21.5835C22.7501 20.9392 23.2724 20.4168 23.9167 20.4168C24.5611 20.4168 25.0834 20.9392 25.0834 21.5835C25.0834 22.2278 24.5611 22.7502 23.9167 22.7502C23.2724 22.7502 22.7501 22.2278 22.7501 21.5835ZM23.9167 28.5835C23.2724 28.5835 22.7501 29.1058 22.7501 29.7502C22.7501 30.3945 23.2724 30.9168 23.9167 30.9168C24.5611 30.9168 25.0834 30.3945 25.0834 29.7502C25.0834 29.1058 24.5611 28.5835 23.9167 28.5835ZM23.9167 24.5002C23.2724 24.5002 22.7501 25.0225 22.7501 25.6668C22.7501 26.3112 23.2724 26.8335 23.9167 26.8335C24.5611 26.8335 25.0834 26.3112 25.0834 25.6668C25.0834 25.0225 24.5611 24.5002 23.9167 24.5002ZM28.0001 20.4168C27.3557 20.4168 26.8334 20.9392 26.8334 21.5835C26.8334 22.2278 27.3557 22.7502 28.0001 22.7502C28.6444 22.7502 29.1667 22.2278 29.1667 21.5835C29.1667 20.9392 28.6444 20.4168 28.0001 20.4168ZM28.0001 28.5835C27.3557 28.5835 26.8334 29.1058 26.8334 29.7502C26.8334 30.3945 27.3557 30.9168 28.0001 30.9168C28.6444 30.9168 29.1667 30.3945 29.1667 29.7502C29.1667 29.1058 28.6444 28.5835 28.0001 28.5835ZM32.0834 28.5835C31.4391 28.5835 30.9167 29.1058 30.9167 29.7502C30.9167 30.3945 31.4391 30.9168 32.0834 30.9168C32.7278 30.9168 33.2501 30.3945 33.2501 29.7502C33.2501 29.1058 32.7278 28.5835 32.0834 28.5835ZM28.0001 24.5002C27.3557 24.5002 26.8334 25.0225 26.8334 25.6668C26.8334 26.3112 27.3557 26.8335 28.0001 26.8335C28.6444 26.8335 29.1667 26.3112 29.1667 25.6668C29.1667 25.0225 28.6444 24.5002 28.0001 24.5002Z" fill="#0E57E7"/>
</svg>
