<svg width="127" height="36" viewBox="0 0 127 36" fill="none" xmlns="http://www.w3.org/2000/svg">
<path d="M8 27.7113V8H15.705C17.1596 8 18.3684 8.22457 19.3315 8.67372C20.3012 9.11646 21.0252 9.72281 21.5035 10.4928C21.9883 11.2628 22.2307 12.1354 22.2307 13.1107C22.2307 13.9127 22.0735 14.5993 21.759 15.1704C21.4445 15.735 21.0219 16.1938 20.4912 16.5467C19.9605 16.8996 19.3676 17.153 18.7124 17.307V17.4995C19.4265 17.538 20.1112 17.753 20.7664 18.1444C21.4281 18.5294 21.9687 19.0748 22.388 19.7806C22.8073 20.4864 23.017 21.3397 23.017 22.3407C23.017 23.3609 22.7647 24.2785 22.2602 25.0934C21.7557 25.9018 20.9957 26.5403 19.9802 27.0087C18.9646 27.4771 17.687 27.7113 16.1473 27.7113H8ZM11.6461 24.7276H15.5675C16.8909 24.7276 17.8442 24.4806 18.4274 23.9865C19.017 23.486 19.3119 22.8444 19.3119 22.0616C19.3119 21.4777 19.1645 20.9516 18.8696 20.4832C18.5748 20.0083 18.1555 19.6362 17.6117 19.3667C17.0678 19.0908 16.4192 18.9528 15.6657 18.9528H11.6461V24.7276ZM11.6461 16.3831H15.253C15.8819 16.3831 16.4487 16.2708 16.9532 16.0462C17.4577 15.8152 17.8541 15.4912 18.1424 15.0741C18.4372 14.6506 18.5846 14.1501 18.5846 13.5727C18.5846 12.8091 18.3094 12.1803 17.7591 11.6862C17.2153 11.1922 16.4061 10.9451 15.3316 10.9451H11.6461V16.3831Z" fill="#05004E"/>
<path d="M31.5093 28C30.0352 28 28.7575 27.6824 27.6765 27.0472C26.5954 26.4119 25.7568 25.5233 25.1605 24.3811C24.5709 23.239 24.276 21.9044 24.276 20.3773C24.276 18.8502 24.5709 17.5124 25.1605 16.3638C25.7568 15.2153 26.5954 14.3234 27.6765 13.6882C28.7575 13.0529 30.0352 12.7353 31.5093 12.7353C32.9835 12.7353 34.2611 13.0529 35.3422 13.6882C36.4233 14.3234 37.2586 15.2153 37.8483 16.3638C38.4445 17.5124 38.7426 18.8502 38.7426 20.3773C38.7426 21.9044 38.4445 23.239 37.8483 24.3811C37.2586 25.5233 36.4233 26.4119 35.3422 27.0472C34.2611 27.6824 32.9835 28 31.5093 28ZM31.529 25.2089C32.3283 25.2089 32.9966 24.9939 33.5339 24.564C34.0711 24.1277 34.4708 23.5438 34.7329 22.8123C35.0015 22.0808 35.1358 21.266 35.1358 20.3677C35.1358 19.4629 35.0015 18.6449 34.7329 17.9134C34.4708 17.1755 34.0711 16.5884 33.5339 16.1521C32.9966 15.7158 32.3283 15.4976 31.529 15.4976C30.71 15.4976 30.0286 15.7158 29.4848 16.1521C28.9475 16.5884 28.5446 17.1755 28.276 17.9134C28.0139 18.6449 27.8829 19.4629 27.8829 20.3677C27.8829 21.266 28.0139 22.0808 28.276 22.8123C28.5446 23.5438 28.9475 24.1277 29.4848 24.564C30.0286 24.9939 30.71 25.2089 31.529 25.2089Z" fill="#05004E"/>
<path d="M47.2399 28C45.7657 28 44.4881 27.6824 43.407 27.0472C42.326 26.4119 41.4873 25.5233 40.8911 24.3811C40.3014 23.239 40.0066 21.9044 40.0066 20.3773C40.0066 18.8502 40.3014 17.5124 40.8911 16.3638C41.4873 15.2153 42.326 14.3234 43.407 13.6882C44.4881 13.0529 45.7657 12.7353 47.2399 12.7353C48.7141 12.7353 49.9917 13.0529 51.0728 13.6882C52.1538 14.3234 52.9892 15.2153 53.5789 16.3638C54.1751 17.5124 54.4732 18.8502 54.4732 20.3773C54.4732 21.9044 54.1751 23.239 53.5789 24.3811C52.9892 25.5233 52.1538 26.4119 51.0728 27.0472C49.9917 27.6824 48.7141 28 47.2399 28ZM47.2596 25.2089C48.0589 25.2089 48.7272 24.9939 49.2645 24.564C49.8017 24.1277 50.2014 23.5438 50.4635 22.8123C50.7321 22.0808 50.8664 21.266 50.8664 20.3677C50.8664 19.4629 50.7321 18.6449 50.4635 17.9134C50.2014 17.1755 49.8017 16.5884 49.2645 16.1521C48.7272 15.7158 48.0589 15.4976 47.2596 15.4976C46.4406 15.4976 45.7592 15.7158 45.2154 16.1521C44.6781 16.5884 44.2752 17.1755 44.0065 17.9134C43.7445 18.6449 43.6134 19.4629 43.6134 20.3677C43.6134 21.266 43.7445 22.0808 44.0065 22.8123C44.2752 23.5438 44.6781 24.1277 45.2154 24.564C45.7592 24.9939 46.4406 25.2089 47.2596 25.2089Z" fill="#05004E"/>
<path d="M59.629 23.0722L59.6192 18.8662H60.1892L65.6142 12.9278H69.7714L63.0983 20.204H62.3612L59.629 23.0722ZM56.3858 27.7113V8H59.9435V27.7113H56.3858ZM65.8599 27.7113L60.946 20.9836L63.3439 18.5294L70.1153 27.7113H65.8599Z" fill="#05004E"/>
<path d="M82.9664 16.8354L79.7232 17.1819C79.6314 16.8611 79.4709 16.5595 79.2416 16.2772C79.0188 15.9949 78.7174 15.7671 78.3374 15.5938C77.9574 15.4206 77.4922 15.334 76.9419 15.334C76.2015 15.334 75.5791 15.4912 75.0746 15.8056C74.5766 16.12 74.3309 16.5274 74.3375 17.0279C74.3309 17.4578 74.4915 17.8075 74.8191 18.077C75.1532 18.3465 75.7036 18.5679 76.4701 18.7411L79.045 19.2801C80.4734 19.5816 81.5348 20.0597 82.2293 20.7141C82.9303 21.3686 83.2841 22.2252 83.2907 23.2839C83.2841 24.2143 83.0057 25.0356 82.4553 25.7478C81.9115 26.4536 81.1548 27.0055 80.1851 27.4033C79.2154 27.8011 78.1016 28 76.8436 28C74.996 28 73.5087 27.6214 72.3818 26.8643C71.2548 26.1007 70.5833 25.0388 70.367 23.6785L73.8363 23.3513C73.9935 24.0186 74.3277 24.5223 74.8387 24.8624C75.3498 25.2024 76.0148 25.3725 76.8338 25.3725C77.679 25.3725 78.3571 25.2024 78.8681 24.8624C79.3857 24.5223 79.6445 24.102 79.6445 23.6015C79.6445 23.1781 79.4775 22.8284 79.1433 22.5525C78.8157 22.2765 78.3047 22.0648 77.6102 21.9172L75.0353 21.3879C73.5873 21.0927 72.5161 20.5954 71.8216 19.8961C71.1271 19.1902 70.7831 18.2984 70.7896 17.2204C70.7831 16.3093 71.0353 15.5201 71.5464 14.8527C72.064 14.179 72.7814 13.6593 73.6987 13.2936C74.6225 12.9214 75.6872 12.7353 76.8927 12.7353C78.6618 12.7353 80.054 13.1043 81.0696 13.8422C82.0917 14.58 82.7239 15.5778 82.9664 16.8354Z" fill="#05004E"/>
<path d="M85.2745 27.7113V8H92.8223C94.3686 8 95.6659 8.28232 96.7142 8.84697C97.769 9.41161 98.5651 10.188 99.1023 11.1761C99.6461 12.1578 99.9181 13.2743 99.9181 14.5255C99.9181 15.7895 99.6461 16.9124 99.1023 17.8941C98.5585 18.8758 97.7559 19.649 96.6945 20.2137C95.6331 20.7719 94.326 21.051 92.7732 21.051H87.7708V18.1155H92.2818C93.186 18.1155 93.9263 17.9615 94.5029 17.6535C95.0795 17.3455 95.5053 16.922 95.7805 16.3831C96.0622 15.8441 96.2031 15.2249 96.2031 14.5255C96.2031 13.8261 96.0622 13.2101 95.7805 12.6776C95.5053 12.145 95.0762 11.7312 94.4931 11.436C93.9165 11.1344 93.1729 10.9836 92.2621 10.9836H88.9207V27.7113H85.2745Z" fill="#05004E"/>
<path d="M108.288 28C106.774 28 105.467 27.692 104.366 27.076C103.272 26.4536 102.43 25.5746 101.84 24.4389C101.251 23.2968 100.956 21.9525 100.956 20.4062C100.956 18.8855 101.251 17.5508 101.84 16.4023C102.437 15.2474 103.269 14.3491 104.337 13.7074C105.405 13.0594 106.659 12.7353 108.101 12.7353C109.031 12.7353 109.909 12.8829 110.735 13.1781C111.567 13.4668 112.301 13.9159 112.936 14.5255C113.578 15.1351 114.083 15.9115 114.45 16.8547C114.817 17.7915 115 18.9079 115 20.204V21.2724H102.627V18.924H111.59C111.583 18.2567 111.436 17.6631 111.147 17.1434C110.859 16.6173 110.456 16.2034 109.939 15.9018C109.428 15.6003 108.831 15.4495 108.15 15.4495C107.423 15.4495 106.784 15.6227 106.234 15.9692C105.683 16.3093 105.254 16.7584 104.946 17.3167C104.645 17.8685 104.491 18.4748 104.484 19.1357V21.1858C104.484 22.0456 104.645 22.7834 104.966 23.3994C105.287 24.009 105.736 24.4774 106.312 24.8046C106.889 25.1254 107.564 25.2859 108.337 25.2859C108.854 25.2859 109.323 25.2153 109.742 25.0741C110.161 24.9265 110.525 24.7116 110.833 24.4293C111.141 24.1469 111.374 23.7972 111.531 23.3802L114.853 23.7459C114.643 24.6057 114.243 25.3564 113.654 25.9981C113.07 26.6333 112.324 27.1274 111.413 27.4803C110.502 27.8268 109.46 28 108.288 28Z" fill="#05004E"/>
</svg>
