<svg width="56" height="56" viewBox="0 0 56 56" fill="none" xmlns="http://www.w3.org/2000/svg">
<rect width="56" height="56" rx="28" fill="#E3F1FD"/>
<path d="M20.1249 18.6665H35.8749C37.8968 18.6665 39.549 20.249 39.6606 22.243L39.6666 22.4582V33.5415C39.6666 35.5633 38.084 37.2156 36.0901 37.3272L35.8749 37.3332H20.1249C18.1031 37.3332 16.4508 35.7506 16.3392 33.7566L16.3333 33.5415V22.4582C16.3333 20.4363 17.9158 18.784 19.9098 18.6725L20.1249 18.6665ZM37.9166 24.935L28.4074 29.9408C28.1888 30.0559 27.9335 30.0723 27.7045 29.9902L27.5924 29.9408L18.0833 24.9362V33.5415C18.0833 34.6127 18.9082 35.4912 19.9575 35.5764L20.1249 35.5832H35.8749C36.9462 35.5832 37.8247 34.7582 37.9098 33.7089L37.9166 33.5415V24.935ZM35.8749 20.4165H20.1249C19.0537 20.4165 18.1752 21.2415 18.09 22.2907L18.0833 22.4582V22.9587L27.9999 28.1778L37.9166 22.9575V22.4582C37.9166 21.387 37.0916 20.5084 36.0423 20.4233L35.8749 20.4165Z" fill="#0E57E7"/>
</svg>
