<svg width="56" height="56" viewBox="0 0 56 56" fill="none" xmlns="http://www.w3.org/2000/svg">
<rect width="56" height="56" rx="28" fill="#E3F1FD"/>
<path d="M22.3487 16.8248L23.7102 16.4144C25.2532 15.9493 26.9016 16.7009 27.5624 18.1707L28.6144 20.5107C29.1775 21.7635 28.8807 23.2359 27.8762 24.1726L26.1329 25.7984C26.0819 25.8459 26.0496 25.91 26.0419 25.9793C25.9901 26.4426 26.3043 27.3449 27.0278 28.5983C27.5541 29.5098 28.0304 30.1489 28.4358 30.5084C28.7182 30.7589 28.8737 30.8131 28.9399 30.7933L31.2854 30.0763C32.5986 29.6749 34.0217 30.1535 34.8251 31.2671L36.3193 33.338C37.2597 34.6414 37.0906 36.4395 35.9237 37.5447L34.8895 38.524C33.7737 39.5808 32.1852 39.9745 30.7051 39.5614C27.4919 38.6646 24.6111 35.953 22.0306 31.4835C19.4464 27.0077 18.5397 23.1525 19.3756 19.9188C19.7581 18.4389 20.8852 17.2659 22.3487 16.8248ZM22.8538 18.5003C21.9757 18.765 21.2994 19.4688 21.0699 20.3567C20.3668 23.0768 21.1705 26.4938 23.5461 30.6085C25.9186 34.7177 28.4723 37.1213 31.1755 37.8758C32.0636 38.1237 33.0167 37.8875 33.6862 37.2534L34.7203 36.2741C35.2507 35.7717 35.3276 34.9544 34.9002 34.3619L33.406 32.2911C33.0407 31.785 32.3938 31.5673 31.7969 31.7499L29.4458 32.4687C28.0811 32.8755 26.8425 31.7771 25.5123 29.4733C24.616 27.9208 24.1982 26.7206 24.3027 25.7851C24.3568 25.3003 24.5827 24.8511 24.9393 24.5185L26.6827 22.8928C27.1394 22.467 27.2742 21.7977 27.0183 21.2283L25.9663 18.8882C25.6659 18.2202 24.9166 17.8785 24.2153 18.0899L22.8538 18.5003Z" fill="#0E57E7"/>
</svg>
